<svg xmlns="http://www.w3.org/2000/svg" width="256" height="256" viewBox="0 0 32 32" shape-rendering="crispEdges" role="img" aria-label="Detailed pixel-art yellow construction hard hat">
<rect x="12" y="4" width="8" height="1" fill="#141414"/>
<rect x="10" y="5" width="3" height="1" fill="#141414"/>
<rect x="13" y="5" width="2" height="1" fill="#ffd21e"/>
<rect x="15" y="5" width="4" height="1" fill="#f5b800"/>
<rect x="19" y="5" width="3" height="1" fill="#141414"/>
<rect x="9" y="6" width="2" height="1" fill="#141414"/>
<rect x="11" y="6" width="2" height="1" fill="#ffd21e"/>
<rect x="13" y="6" width="1" height="1" fill="#fff07a"/>
<rect x="14" y="6" width="1" height="1" fill="#ffd21e"/>
<rect x="15" y="6" width="1" height="1" fill="#b57400"/>
<rect x="16" y="6" width="4" height="1" fill="#f5b800"/>
<rect x="20" y="6" width="1" height="1" fill="#d99000"/>
<rect x="21" y="6" width="2" height="1" fill="#141414"/>
<rect x="8" y="7" width="2" height="1" fill="#141414"/>
<rect x="10" y="7" width="1" height="1" fill="#ffd21e"/>
<rect x="11" y="7" width="2" height="1" fill="#fff07a"/>
<rect x="13" y="7" width="2" height="1" fill="#ffd21e"/>
<rect x="15" y="7" width="1" height="1" fill="#b57400"/>
<rect x="16" y="7" width="4" height="1" fill="#f5b800"/>
<rect x="20" y="7" width="1" height="1" fill="#d99000"/>
<rect x="21" y="7" width="1" height="1" fill="#b57400"/>
<rect x="22" y="7" width="2" height="1" fill="#141414"/>
<rect x="7" y="8" width="2" height="1" fill="#141414"/>
<rect x="9" y="8" width="1" height="1" fill="#b57400"/>
<rect x="10" y="8" width="1" height="1" fill="#ffd21e"/>
<rect x="11" y="8" width="1" height="1" fill="#fff07a"/>
<rect x="12" y="8" width="3" height="1" fill="#ffd21e"/>
<rect x="15" y="8" width="1" height="1" fill="#b57400"/>
<rect x="16" y="8" width="4" height="1" fill="#f5b800"/>
<rect x="20" y="8" width="1" height="1" fill="#d99000"/>
<rect x="21" y="8" width="1" height="1" fill="#b57400"/>
<rect x="22" y="8" width="1" height="1" fill="#d99000"/>
<rect x="23" y="8" width="2" height="1" fill="#141414"/>
<rect x="6" y="9" width="2" height="1" fill="#141414"/>
<rect x="8" y="9" width="1" height="1" fill="#fff07a"/>
<rect x="9" y="9" width="1" height="1" fill="#b57400"/>
<rect x="10" y="9" width="5" height="1" fill="#ffd21e"/>
<rect x="15" y="9" width="1" height="1" fill="#b57400"/>
<rect x="16" y="9" width="4" height="1" fill="#f5b800"/>
<rect x="20" y="9" width="1" height="1" fill="#d99000"/>
<rect x="21" y="9" width="1" height="1" fill="#b57400"/>
<rect x="22" y="9" width="2" height="1" fill="#d99000"/>
<rect x="24" y="9" width="2" height="1" fill="#141414"/>
<rect x="6" y="10" width="1" height="1" fill="#141414"/>
<rect x="7" y="10" width="2" height="1" fill="#fff07a"/>
<rect x="9" y="10" width="1" height="1" fill="#b57400"/>
<rect x="10" y="10" width="5" height="1" fill="#ffd21e"/>
<rect x="15" y="10" width="1" height="1" fill="#b57400"/>
<rect x="16" y="10" width="4" height="1" fill="#f5b800"/>
<rect x="20" y="10" width="1" height="1" fill="#d99000"/>
<rect x="21" y="10" width="1" height="1" fill="#b57400"/>
<rect x="22" y="10" width="3" height="1" fill="#d99000"/>
<rect x="25" y="10" width="1" height="1" fill="#141414"/>
<rect x="5" y="11" width="2" height="1" fill="#141414"/>
<rect x="7" y="11" width="2" height="1" fill="#fff07a"/>
<rect x="9" y="11" width="1" height="1" fill="#b57400"/>
<rect x="10" y="11" width="5" height="1" fill="#ffd21e"/>
<rect x="15" y="11" width="1" height="1" fill="#b57400"/>
<rect x="16" y="11" width="4" height="1" fill="#f5b800"/>
<rect x="20" y="11" width="1" height="1" fill="#d99000"/>
<rect x="21" y="11" width="1" height="1" fill="#b57400"/>
<rect x="22" y="11" width="3" height="1" fill="#d99000"/>
<rect x="25" y="11" width="2" height="1" fill="#141414"/>
<rect x="5" y="12" width="1" height="1" fill="#141414"/>
<rect x="6" y="12" width="3" height="1" fill="#fff07a"/>
<rect x="9" y="12" width="1" height="1" fill="#b57400"/>
<rect x="10" y="12" width="5" height="1" fill="#ffd21e"/>
<rect x="15" y="12" width="1" height="1" fill="#b57400"/>
<rect x="16" y="12" width="4" height="1" fill="#f5b800"/>
<rect x="20" y="12" width="1" height="1" fill="#d99000"/>
<rect x="21" y="12" width="1" height="1" fill="#b57400"/>
<rect x="22" y="12" width="4" height="1" fill="#d99000"/>
<rect x="26" y="12" width="1" height="1" fill="#141414"/>
<rect x="5" y="13" width="1" height="1" fill="#141414"/>
<rect x="6" y="13" width="3" height="1" fill="#fff07a"/>
<rect x="9" y="13" width="1" height="1" fill="#b57400"/>
<rect x="10" y="13" width="5" height="1" fill="#ffd21e"/>
<rect x="15" y="13" width="1" height="1" fill="#b57400"/>
<rect x="16" y="13" width="4" height="1" fill="#f5b800"/>
<rect x="20" y="13" width="1" height="1" fill="#d99000"/>
<rect x="21" y="13" width="1" height="1" fill="#b57400"/>
<rect x="22" y="13" width="4" height="1" fill="#d99000"/>
<rect x="26" y="13" width="1" height="1" fill="#141414"/>
<rect x="4" y="14" width="2" height="1" fill="#141414"/>
<rect x="6" y="14" width="3" height="1" fill="#fff07a"/>
<rect x="9" y="14" width="1" height="1" fill="#b57400"/>
<rect x="10" y="14" width="5" height="1" fill="#ffd21e"/>
<rect x="15" y="14" width="1" height="1" fill="#b57400"/>
<rect x="16" y="14" width="4" height="1" fill="#f5b800"/>
<rect x="20" y="14" width="1" height="1" fill="#d99000"/>
<rect x="21" y="14" width="1" height="1" fill="#b57400"/>
<rect x="22" y="14" width="4" height="1" fill="#d99000"/>
<rect x="26" y="14" width="2" height="1" fill="#141414"/>
<rect x="4" y="15" width="1" height="1" fill="#141414"/>
<rect x="5" y="15" width="4" height="1" fill="#fff07a"/>
<rect x="9" y="15" width="1" height="1" fill="#b57400"/>
<rect x="10" y="15" width="5" height="1" fill="#ffd21e"/>
<rect x="15" y="15" width="1" height="1" fill="#b57400"/>
<rect x="16" y="15" width="4" height="1" fill="#f5b800"/>
<rect x="20" y="15" width="1" height="1" fill="#d99000"/>
<rect x="21" y="15" width="1" height="1" fill="#b57400"/>
<rect x="22" y="15" width="5" height="1" fill="#d99000"/>
<rect x="27" y="15" width="1" height="1" fill="#141414"/>
<rect x="4" y="16" width="1" height="1" fill="#141414"/>
<rect x="5" y="16" width="4" height="1" fill="#fff07a"/>
<rect x="9" y="16" width="1" height="1" fill="#b57400"/>
<rect x="10" y="16" width="5" height="1" fill="#ffd21e"/>
<rect x="15" y="16" width="1" height="1" fill="#b57400"/>
<rect x="16" y="16" width="4" height="1" fill="#f5b800"/>
<rect x="20" y="16" width="1" height="1" fill="#d99000"/>
<rect x="21" y="16" width="1" height="1" fill="#b57400"/>
<rect x="22" y="16" width="5" height="1" fill="#d99000"/>
<rect x="27" y="16" width="1" height="1" fill="#141414"/>
<rect x="4" y="17" width="1" height="1" fill="#141414"/>
<rect x="5" y="17" width="4" height="1" fill="#fff07a"/>
<rect x="9" y="17" width="1" height="1" fill="#8a5a00"/>
<rect x="10" y="17" width="1" height="1" fill="#b57400"/>
<rect x="11" y="17" width="4" height="1" fill="#ffd21e"/>
<rect x="15" y="17" width="1" height="1" fill="#b57400"/>
<rect x="16" y="17" width="4" height="1" fill="#f5b800"/>
<rect x="20" y="17" width="1" height="1" fill="#d99000"/>
<rect x="21" y="17" width="1" height="1" fill="#b57400"/>
<rect x="22" y="17" width="1" height="1" fill="#8a5a00"/>
<rect x="23" y="17" width="1" height="1" fill="#b57400"/>
<rect x="24" y="17" width="3" height="1" fill="#d99000"/>
<rect x="27" y="17" width="1" height="1" fill="#141414"/>
<rect x="4" y="18" width="1" height="1" fill="#141414"/>
<rect x="5" y="18" width="4" height="1" fill="#ffd21e"/>
<rect x="9" y="18" width="1" height="1" fill="#b57400"/>
<rect x="10" y="18" width="5" height="1" fill="#f5b800"/>
<rect x="15" y="18" width="1" height="1" fill="#b57400"/>
<rect x="16" y="18" width="4" height="1" fill="#d99000"/>
<rect x="20" y="18" width="7" height="1" fill="#b57400"/>
<rect x="27" y="18" width="1" height="1" fill="#141414"/>
<rect x="1" y="19" width="4" height="1" fill="#141414"/>
<rect x="5" y="19" width="4" height="1" fill="#ffd21e"/>
<rect x="9" y="19" width="1" height="1" fill="#b57400"/>
<rect x="10" y="19" width="5" height="1" fill="#f5b800"/>
<rect x="15" y="19" width="1" height="1" fill="#b57400"/>
<rect x="16" y="19" width="4" height="1" fill="#d99000"/>
<rect x="20" y="19" width="7" height="1" fill="#b57400"/>
<rect x="27" y="19" width="4" height="1" fill="#141414"/>
<rect x="0" y="20" width="2" height="1" fill="#141414"/>
<rect x="2" y="20" width="4" height="1" fill="#ffd21e"/>
<rect x="6" y="20" width="1" height="1" fill="#8a5a00"/>
<rect x="7" y="20" width="2" height="1" fill="#ffd21e"/>
<rect x="9" y="20" width="1" height="1" fill="#b57400"/>
<rect x="10" y="20" width="3" height="1" fill="#ffd21e"/>
<rect x="13" y="20" width="2" height="1" fill="#f5b800"/>
<rect x="15" y="20" width="1" height="1" fill="#b57400"/>
<rect x="16" y="20" width="4" height="1" fill="#d99000"/>
<rect x="20" y="20" width="5" height="1" fill="#b57400"/>
<rect x="25" y="20" width="1" height="1" fill="#8a5a00"/>
<rect x="26" y="20" width="1" height="1" fill="#b57400"/>
<rect x="27" y="20" width="3" height="1" fill="#f5b800"/>
<rect x="30" y="20" width="2" height="1" fill="#141414"/>
<rect x="0" y="21" width="1" height="1" fill="#141414"/>
<rect x="1" y="21" width="3" height="1" fill="#d99000"/>
<rect x="4" y="21" width="4" height="1" fill="#ffd21e"/>
<rect x="8" y="21" width="2" height="1" fill="#b57400"/>
<rect x="10" y="21" width="5" height="1" fill="#f5b800"/>
<rect x="15" y="21" width="1" height="1" fill="#b57400"/>
<rect x="16" y="21" width="4" height="1" fill="#d99000"/>
<rect x="20" y="21" width="8" height="1" fill="#b57400"/>
<rect x="28" y="21" width="3" height="1" fill="#d99000"/>
<rect x="31" y="21" width="1" height="1" fill="#141414"/>
<rect x="0" y="22" width="1" height="1" fill="#141414"/>
<rect x="1" y="22" width="30" height="1" fill="#b57400"/>
<rect x="31" y="22" width="1" height="1" fill="#141414"/>
<rect x="0" y="23" width="2" height="1" fill="#141414"/>
<rect x="2" y="23" width="28" height="1" fill="#b57400"/>
<rect x="30" y="23" width="2" height="1" fill="#141414"/>
<rect x="1" y="24" width="5" height="1" fill="#141414"/>
<rect x="6" y="24" width="20" height="1" fill="#b57400"/>
<rect x="26" y="24" width="5" height="1" fill="#141414"/>
<rect x="5" y="25" width="22" height="1" fill="#141414"/>
</svg>